<svg width="230" height="39" viewBox="0 0 230 39" fill="none" xmlns="http://www.w3.org/2000/svg">
<path d="M29.4688 23.5273L33.5078 30.5273L48.3164 4.87891L45.4961 3.25L53.3789 0L54.5039 8.44922L51.6836 6.82422C45.625 17.3164 39.5664 27.8086 33.5078 38.3008L27.2227 27.4141L29.4688 23.5273ZM2.25 8.84766L0 4.94922H18.7422L25.543 16.7266L23.2969 20.6172L16.5039 8.84766C11.7539 8.84766 7 8.84766 2.25 8.84766Z" fill="#06BFD7"/>
<path d="M19.2578 30.5273C22.4258 25.0391 25.5937 19.5508 28.7617 14.0625L31.4922 9.33203L28.6719 7.70312L36.5547 4.45312L37.6797 12.9023L34.8594 11.2773C29.6602 20.2852 24.457 29.293 19.2578 38.3008L3.08984 10.3008H7.58203L19.2578 30.5273Z" fill="black"/>
<path d="M74.7539 27.6367H77.8906L70.5938 11.4727H67.6406L60.3672 27.6367H63.4609L65.0547 23.8984H73.1367L74.7539 27.6367ZM66.0703 21.543L69.0938 14.4766L72.1445 21.543H66.0703ZM85.2109 27.8008C87.6133 27.8008 89.5312 26.7617 90.4766 24.9141L88.2617 23.6211C87.5234 24.7969 86.4141 25.3281 85.1875 25.3281C83.0664 25.3281 81.4492 23.875 81.4492 21.4727C81.4492 19.0938 83.0664 17.6172 85.1875 17.6172C86.4141 17.6172 87.5234 18.1484 88.2617 19.3242L90.4766 18.0312C89.5312 16.1602 87.6133 15.168 85.2109 15.168C81.3086 15.168 78.5391 17.7773 78.5391 21.4727C78.5391 25.168 81.3086 27.8008 85.2109 27.8008ZM98.4453 27.8008C100.844 27.8008 102.762 26.7617 103.707 24.9141L101.492 23.6211C100.754 24.7969 99.6445 25.3281 98.4219 25.3281C96.2969 25.3281 94.6797 23.875 94.6797 21.4727C94.6797 19.0938 96.2969 17.6172 98.4219 17.6172C99.6445 17.6172 100.754 18.1484 101.492 19.3242L103.707 18.0312C102.762 16.1602 100.844 15.168 98.4453 15.168C94.543 15.168 91.7695 17.7773 91.7695 21.4727C91.7695 25.168 94.543 27.8008 98.4453 27.8008ZM117.609 21.543C117.609 17.6836 114.977 15.168 111.375 15.168C107.703 15.168 105 17.8008 105 21.4727C105 25.1445 107.68 27.8008 111.812 27.8008C113.938 27.8008 115.668 27.1055 116.777 25.7891L115.23 24.0117C114.355 24.9141 113.27 25.3516 111.883 25.3516C109.734 25.3516 108.234 24.1953 107.887 22.3945H117.562C117.586 22.1172 117.609 21.7734 117.609 21.543ZM111.375 17.4766C113.27 17.4766 114.629 18.7031 114.863 20.4805H107.863C108.141 18.6797 109.504 17.4766 111.375 17.4766ZM120.379 27.6367H123.266V10.5039H120.379V27.6367ZM138.645 21.543C138.645 17.6836 136.012 15.168 132.41 15.168C128.738 15.168 126.039 17.8008 126.039 21.4727C126.039 25.1445 128.715 27.8008 132.848 27.8008C134.973 27.8008 136.707 27.1055 137.812 25.7891L136.266 24.0117C135.391 24.9141 134.305 25.3516 132.918 25.3516C130.773 25.3516 129.27 24.1953 128.926 22.3945H138.598C138.621 22.1172 138.645 21.7734 138.645 21.543ZM132.41 17.4766C134.305 17.4766 135.668 18.7031 135.898 20.4805H128.902C129.18 18.6797 130.539 17.4766 132.41 17.4766ZM144.164 17.1094V15.3086H141.418V27.6367H144.305V21.6562C144.305 19.1406 145.688 17.8477 147.883 17.8477C148.09 17.8477 148.297 17.8711 148.551 17.9141V15.168C146.496 15.168 144.996 15.8164 144.164 17.1094ZM155.641 15.168C153.656 15.168 151.738 15.6758 150.422 16.6914L151.555 18.793C152.477 18.0312 153.91 17.5703 155.293 17.5703C157.352 17.5703 158.367 18.5625 158.367 20.25V20.4336H155.18C151.438 20.4336 150.055 22.0508 150.055 24.1055C150.055 26.2539 151.832 27.8008 154.648 27.8008C156.496 27.8008 157.836 27.1992 158.527 26.1367V27.6367H161.25V20.4102C161.25 16.8555 159.195 15.168 155.641 15.168ZM155.25 25.6992C153.77 25.6992 152.895 25.0273 152.895 23.9883C152.895 23.0898 153.426 22.3477 155.387 22.3477H158.367V23.7812C157.879 25.0508 156.656 25.6992 155.25 25.6992ZM171.551 24.9141C171.113 25.2578 170.535 25.4219 169.934 25.4219C168.824 25.4219 168.227 24.7734 168.227 23.5742V17.707H171.527V15.3984H168.227V12.582H165.34V15.3984H163.309V17.707H165.34V23.6445C165.34 26.3672 166.887 27.8008 169.59 27.8008C170.629 27.8008 171.668 27.5234 172.359 26.9688L171.551 24.9141ZM185.914 21.543C185.914 17.6836 183.281 15.168 179.68 15.168C176.008 15.168 173.305 17.8008 173.305 21.4727C173.305 25.1445 175.984 27.8008 180.117 27.8008C182.242 27.8008 183.973 27.1055 185.082 25.7891L183.535 24.0117C182.656 24.9141 181.57 25.3516 180.188 25.3516C178.039 25.3516 176.539 24.1953 176.191 22.3945H185.867C185.891 22.1172 185.914 21.7734 185.914 21.543ZM179.68 17.4766C181.57 17.4766 182.934 18.7031 183.164 20.4805H176.168C176.445 18.6797 177.809 17.4766 179.68 17.4766ZM209.559 11.4727L205.797 22.9258L202.102 11.4727H198.637L194.828 22.8359L191.18 11.4727H187.301L192.609 27.6367H196.605L200.277 16.6914L203.832 27.6367H207.852L213.137 11.4727H209.559ZM222.215 11.4727H215.215V27.6367H218.957V23.1797H222.215C226.531 23.1797 229.234 20.9414 229.234 17.3398C229.234 13.7148 226.531 11.4727 222.215 11.4727ZM222.004 20.1328H218.957V14.5234H222.004C224.293 14.5234 225.445 15.5586 225.445 17.3398C225.445 19.0938 224.293 20.1328 222.004 20.1328Z" fill="black"/>
</svg>
