<svg width="55" height="39" viewBox="0 0 55 39" fill="none" xmlns="http://www.w3.org/2000/svg">
<path d="M29.4688 23.5273L33.5078 30.5273L48.3164 4.87891L45.4961 3.25L53.3789 0L54.5039 8.44922L51.6836 6.82422C45.625 17.3164 39.5664 27.8086 33.5078 38.3008L27.2227 27.4141L29.4688 23.5273ZM2.25 8.84766L0 4.94922H18.7422L25.543 16.7266L23.2969 20.6172L16.5039 8.84766C11.7539 8.84766 7 8.84766 2.25 8.84766Z" fill="#06BFD7"/>
<path d="M19.2578 30.5273C22.4258 25.0391 25.5938 19.5508 28.7617 14.0625L31.4922 9.33203L28.6719 7.70312L36.5547 4.45312L37.6797 12.9023L34.8594 11.2773C29.6602 20.2852 24.457 29.293 19.2578 38.3008L3.08984 10.3008H7.58203L19.2578 30.5273Z" fill="black"/>
</svg>
